<svg xmlns="http://www.w3.org/2000/svg" width="1400" height="620" viewBox="0 0 1400 620">
  <rect width="1400" height="620" fill="#faf9f5"/>
  <g font-family="Open Sans,sans-serif" fill="#292929" stroke="#292929" stroke-width="4">
    <text x="60" y="60" font-size="34" stroke="none">WHAT A WORKING BUILD LOOKS LIKE</text>
    <g fill="none">
      <rect x="60" y="105" width="250" height="420" rx="22"/><rect x="330" y="105" width="250" height="420" rx="22"/>
      <rect x="600" y="105" width="250" height="420" rx="22"/><rect x="870" y="105" width="250" height="420" rx="22"/>
      <rect x="1140" y="105" width="200" height="420" rx="22"/>
      <circle cx="185" cy="200" r="44"/><circle cx="455" cy="200" r="44"/><circle cx="725" cy="200" r="44"/>
      <circle cx="995" cy="200" r="44"/><circle cx="1240" cy="200" r="44"/>
      <rect x="88" y="280" width="194" height="92"/><rect x="358" y="280" width="194" height="92"/>
      <rect x="628" y="280" width="194" height="92"/><rect x="898" y="280" width="194" height="92"/>
      <rect x="1160" y="280" width="160" height="92"/>
    </g>
    <g stroke="none">
      <text x="137" y="130" font-size="23">READY</text><text x="390" y="130" font-size="23">ENTERING</text>
      <text x="662" y="130" font-size="23">GRANTED</text><text x="932" y="130" font-size="23">DENIED</text>
      <text x="1163" y="130" font-size="23">LOCKOUT</text>
      <text x="120" y="328" font-size="25">READY</text><text x="388" y="328" font-size="25">ENTER 2</text>
      <text x="648" y="328" font-size="25">GRANTED</text><text x="925" y="328" font-size="25">DENIED</text>
      <text x="1170" y="328" font-size="22">LOCKED OUT</text>
      <text x="90" y="418" font-size="22">RGB: blue</text><text x="357" y="418" font-size="22">RGB: white</text>
      <text x="630" y="418" font-size="22">RGB: green</text><text x="900" y="418" font-size="22">RGB: amber</text>
      <text x="1168" y="418" font-size="20">amber pulse</text>
      <text x="90" y="465" font-size="22">D30: off</text><text x="357" y="465" font-size="22">D30: off</text>
      <text x="630" y="465" font-size="22">D30: ON</text><text x="900" y="465" font-size="22">D30: off</text>
      <text x="1168" y="465" font-size="20">D30: off</text>
      <text x="60" y="575" font-size="25">Color is never the only clue: LCD wording and the separate D30 LED tell the same story.</text>
    </g>
  </g>
</svg>
