<svg xmlns="http://www.w3.org/2000/svg" width="1536" height="820" viewBox="0 0 1536 820">
  <defs>
    <filter id="paper"><feTurbulence baseFrequency=".55" numOctaves="2" seed="69" result="n"/><feBlend in="SourceGraphic" in2="n" mode="multiply"/></filter>
    <filter id="rough"><feTurbulence baseFrequency=".018" numOctaves="2" seed="9" result="n"/><feDisplacementMap in="SourceGraphic" in2="n" scale="3"/></filter>
    <marker id="arrow" markerWidth="12" markerHeight="12" refX="10" refY="6" orient="auto"><path d="M1 1L11 6L1 11" fill="none" stroke="#333" stroke-width="2"/></marker>
  </defs>
  <rect width="1536" height="820" fill="#f7f7f4"/>
  <g fill="none" stroke="#333" stroke-width="5" stroke-linecap="round" stroke-linejoin="round" filter="url(#rough)">
    <path d="M95 225q105-115 210 0v270q-105 115-210 0z"/>
    <path d="M123 283h154M123 337h154M123 391h154"/>
    <path d="M123 443h154"/>
    <path d="M350 360H560" marker-end="url(#arrow)"/>
    <rect x="585" y="196" width="345" height="330" rx="35"/>
    <path d="M625 260h260M625 325h260M625 390h260M625 455h260"/>
    <path d="M955 360h190" marker-end="url(#arrow)"/>
    <path d="M1190 210l245 0 0 300-245 0z"/>
    <path d="M1225 275h170M1225 330h170M1225 385h170M1225 440h120"/>
    <path d="M84 628q137 78 274 0M1176 630q133 76 266 0"/>
    <path d="M120 660l42 40 90-105M1207 660l42 40 90-105"/>
  </g>
  <g fill="#333" font-family="serif" text-anchor="middle">
    <text x="200" y="170" font-size="38">one copied source</text>
    <text x="758" y="155" font-size="38">exact qualification envelope</text>
    <text x="1312" y="165" font-size="38">bounded trace</text>
    <text x="200" y="570" font-size="30">fixed for this session</text>
    <text x="758" y="575" font-size="30">record + witness agree</text>
    <text x="1312" y="570" font-size="30">append, never overwrite</text>
    <text x="768" y="745" font-size="34">a different source starts a different session</text>
  </g>
</svg>
